<svg width="358" height="173" viewBox="0 0 358 173" fill="none" xmlns="http://www.w3.org/2000/svg">
<path d="M244.495 0.18042C244.788 0.223243 245.046 0.33124 245.232 0.517334C245.422 0.707258 245.516 0.957251 245.517 1.23608V1.73901L245.397 1.81714L243.353 3.17358C243.372 3.2018 243.39 3.23053 243.405 3.26147C248.018 1.44296 252.236 0.5271 256.034 0.5271H256.059L256.082 0.531006C257.429 0.781253 258.455 1.07618 259.149 1.42847C259.833 1.77523 260.281 2.22397 260.281 2.81421V2.83472L260.278 2.85425L259.962 4.95386C260.377 4.97673 260.719 5.04706 260.977 5.17944C261.139 5.26312 261.275 5.37516 261.37 5.51929C261.466 5.66484 261.51 5.82961 261.51 6.00269V6.79761C261.51 7.10015 261.423 7.37408 261.226 7.57202C261.028 7.76999 260.753 7.85611 260.45 7.8562H257.675C253.148 9.6591 250.149 11.2278 248.603 12.5681L248.583 12.5857L248.561 12.5984C248.009 12.9149 247.302 13.067 246.406 13.0671H245.517V13.3679C245.687 13.4067 245.869 13.4752 246.053 13.5671C246.309 13.6955 246.591 13.8754 246.887 14.0964L256.269 10.9646C257.649 9.88873 258.851 9.34937 260.017 9.34937H260.173L260.249 9.48804L260.683 10.282L260.715 10.3416V11.2029C260.715 11.3879 260.627 11.5544 260.512 11.6941C260.395 11.8353 260.231 11.9746 260.03 12.113C259.628 12.391 259.036 12.6956 258.267 13.0281C256.726 13.6936 254.421 14.4921 251.35 15.4333C247.639 17.1012 243.855 18.2704 240.084 19.0671L239.765 19.1345V18.8083C239.765 18.6033 239.708 18.48 239.636 18.408C239.582 18.3538 239.498 18.3072 239.373 18.2878C238.429 18.795 237.593 19.1051 236.873 19.1052H236.608V18.8425C236.267 19.0068 235.962 19.1051 235.645 19.1052H235.574L235.513 19.0691C234.826 18.6726 234.273 18.3711 233.832 18.1687C233.414 17.9766 233.125 17.8908 232.932 17.8796C229.876 19.0891 227.617 20.2992 226.277 21.4128L224.712 23.7742L224.634 23.8923H224.058C223.887 23.8923 223.72 23.8296 223.599 23.6912C223.548 23.6336 223.513 23.5675 223.486 23.4968C223.374 23.5335 223.248 23.5979 223.107 23.7039C222.871 23.8828 222.608 24.1621 222.317 24.5535C221.748 25.3207 221.102 26.4816 220.361 28.0574C221.141 30.2799 221.95 31.9959 222.787 33.2078C223.586 34.3647 224.389 35.0339 225.187 35.2742L225.346 35.3171L225.361 35.3201L225.376 35.3259C231.793 37.6434 236.617 39.9517 239.842 42.2439C243.055 44.5282 244.743 46.8429 244.743 49.1853C244.743 49.5117 244.594 49.9449 244.345 50.4138C244.588 50.8563 244.743 51.2375 244.743 51.5681C244.743 56.687 241.628 61.0944 235.458 64.948C231.597 69.3741 226.66 72.927 220.658 75.7585C215.25 80.5915 209.414 87.2316 203.129 95.6824C200.965 98.5811 198.026 101.993 194.358 105.969L195.227 107.413C195.371 107.335 195.524 107.254 195.69 107.171L195.919 107.056L196.042 107.281L196.476 108.075L196.535 108.184L196.49 108.3C196.392 108.551 196.282 108.779 196.175 108.986L220.583 149.696V99.1677H227.14V155.981H217.235L217.158 155.854L191.958 114.353C190.758 115.887 189.086 117.802 186.934 120.094V122.469L188.467 121.166L188.541 121.103H189.264V121.368C189.264 121.88 189.039 122.516 188.644 123.26C188.253 123.993 187.679 124.862 186.934 125.869V127.687C187.763 126.955 189.188 125.591 191.205 123.574L191.297 123.482L191.426 123.499C191.734 123.538 192.015 123.619 192.219 123.797C192.436 123.986 192.525 124.248 192.525 124.555V124.99C192.525 125.934 192.02 127.062 191.081 128.359C190.15 129.645 188.766 131.132 186.934 132.825V155.97H180.377V143.103C168 155.461 160.268 162.837 157.236 165.163L157.18 165.207L157.108 165.216L154.281 165.576L154.264 165.578H152.92C152.885 166.963 152.572 168.049 151.949 168.802C151.296 169.593 150.337 169.974 149.128 169.992C147.531 171.248 144.883 172.031 141.096 172.386L141.084 172.388H141.071C139.622 172.388 137.686 171.631 135.28 170.171C132.864 168.704 129.936 166.503 126.494 163.565L126.452 163.529L126.428 163.479C123.561 157.526 122.102 151.422 122.062 145.242H121.583L121.628 144.938L122.843 136.627L122.452 135.91L122.401 135.818L122.428 135.717C123.877 130.142 125.317 123.558 126.842 116.103L126.848 116.073L126.86 116.046C128.96 111.513 130.811 107.971 132.412 105.424C133.213 104.15 133.954 103.12 134.636 102.337C135.284 101.592 135.891 101.058 136.455 100.754C136.888 99.8558 137.767 98.7327 139.069 97.3865C140.401 96.0099 142.192 94.3802 144.438 92.491C144.463 92.2706 144.55 92.046 144.684 91.8201C144.844 91.5484 145.078 91.2588 145.381 90.9509C145.986 90.335 146.889 89.6166 148.091 88.782L148.159 88.7351H149.036C149.737 88.7352 150.548 89.0288 151.462 89.5125C152.524 89.2399 153.458 89.0945 154.258 89.0945H154.325L154.385 89.1277L155.101 89.5183C157.126 89.2161 159.156 88.3004 161.272 86.7517L161.342 86.7009H161.862C162.048 86.701 162.235 86.75 162.374 86.8884C162.411 86.9255 162.442 86.9665 162.467 87.0095C162.615 86.936 162.757 86.8744 162.887 86.8269C163.095 86.7507 163.294 86.701 163.451 86.7009H163.48L163.509 86.7078C166.303 87.324 168.434 88.0353 169.871 88.8503C171.3 89.6606 172.115 90.6169 172.115 91.7429V91.8054L172.088 91.8611L171.715 92.6052L172.083 93.2791L172.126 93.3582L172.112 93.447C171.423 97.8309 170.678 101.146 169.874 103.369C169.472 104.479 169.05 105.334 168.601 105.917C168.19 106.448 167.729 106.786 167.215 106.839C164.971 109.939 163.298 112.414 162.184 114.25C161.62 115.178 161.202 115.938 160.926 116.53C160.643 117.135 160.528 117.527 160.528 117.735V117.755L160.525 117.774C159.868 122.193 158.854 125.164 157.263 126.756L157.185 126.833H156.641C156.338 126.833 156.064 126.746 155.866 126.549C155.668 126.351 155.582 126.077 155.582 125.774C155.582 125.588 155.631 125.401 155.77 125.262C155.806 125.226 155.845 125.196 155.887 125.172L155.614 124.673L155.558 124.569L155.597 124.458C156.395 122.179 156.991 120.303 157.388 118.845C157.728 117.595 157.914 116.67 157.962 116.068C155.501 118.271 153.6 120.75 152.107 123.516L152.033 123.656H151.44C151.138 123.656 150.863 123.57 150.665 123.372C150.467 123.174 150.382 122.899 150.382 122.596V122.162C150.382 121.345 150.744 120.016 151.422 118.218C152.105 116.406 153.123 114.081 154.464 111.256C155.465 109.043 156.398 106.114 157.187 102.601L156.875 100.851H155.144C151.738 102.751 149.187 104.466 147.488 105.977C146.634 106.737 146.003 107.439 145.587 108.08C145.171 108.721 144.98 109.287 144.979 109.78V109.803L144.976 109.827C144.831 110.637 144.645 111.267 144.419 111.7C144.2 112.119 143.896 112.439 143.486 112.439H143.222V111.323C141.283 114.826 140.049 117.622 139.394 119.635L139.686 119.767C139.744 119.613 139.827 119.475 139.938 119.364C140.129 119.174 140.379 119.08 140.658 119.08H140.923V119.344C140.923 119.444 140.948 119.475 140.955 119.482C140.962 119.489 140.994 119.514 141.093 119.514H141.357V119.779C141.357 120.031 141.249 120.421 141.068 120.915C140.883 121.422 140.604 122.077 140.236 122.876C139.503 124.467 138.403 126.649 136.93 129.417C136.425 132.363 136.148 134.205 136.146 134.971C136.43 137.702 136.58 139.303 136.58 139.755V140.019H136.315C136.297 140.019 136.279 140.021 136.265 140.022L136.803 140.317L136.94 140.392V140.55C136.94 140.701 136.894 140.88 136.831 141.07C136.77 141.256 136.682 141.482 136.58 141.75C136.585 143.187 136.818 144.261 137.243 145.003C137.639 145.693 138.208 146.109 138.958 146.265L139.11 146.294L139.259 146.317L139.315 146.456C139.855 147.794 140.286 148.781 140.615 149.431C140.781 149.758 140.916 149.989 141.022 150.136C141.074 150.207 141.112 150.25 141.138 150.272H141.146L141.193 150.293C143.12 151.091 144.608 151.569 145.665 151.809C145.74 151.607 145.882 151.413 146.067 151.228C146.351 150.945 146.769 150.643 147.321 150.31L147.472 150.22L147.613 150.323L149.134 151.427H150.532L155.668 146.719L155.744 146.65H156.376V146.101L156.379 146.083C156.422 145.79 156.53 145.532 156.716 145.345C156.906 145.156 157.156 145.061 157.436 145.061H157.471L157.505 145.071L159.041 145.49C159.06 145.484 159.095 145.471 159.146 145.443C159.236 145.396 159.353 145.32 159.499 145.212C159.791 144.996 160.18 144.666 160.667 144.219C161.64 143.328 162.989 141.986 164.716 140.191C168.169 136.601 173.127 131.209 179.608 124.008L179.667 123.943L179.739 123.927C179.744 123.925 179.757 123.919 179.778 123.906C179.817 123.882 179.87 123.844 179.937 123.792C180.052 123.701 180.2 123.572 180.377 123.411V109.957C180.297 110.011 180.215 110.065 180.134 110.12C179.913 110.268 179.687 110.419 179.453 110.573L179.31 110.668L179.164 110.575C178.55 110.182 178.02 109.882 177.567 109.682C177.169 109.506 176.846 109.414 176.587 109.393L165.083 121.329L165.005 121.41H164.098C163.812 121.41 163.549 121.242 163.329 121.011C163.104 120.776 162.89 120.441 162.702 120.026L162.648 119.908L162.709 119.794C163.905 117.513 164.79 115.743 165.375 114.481C165.668 113.851 165.884 113.35 166.026 112.978C166.098 112.792 166.149 112.641 166.183 112.524C166.217 112.403 166.226 112.337 166.227 112.312V112.047H167.551V112.746C167.551 113.263 167.413 113.778 167.206 114.335C167.336 114.694 167.444 115.042 167.502 115.389C171.111 112.319 173.889 109.759 175.82 107.706C176.82 106.643 177.59 105.721 178.129 104.939C178.672 104.153 178.966 103.53 179.046 103.063L179.059 102.989L179.108 102.933L180.377 101.482V99.1462H182.418L184.679 96.5574L185.058 96.1238L185.141 96.6931C185.172 96.9081 185.244 97.0477 185.328 97.1316C185.395 97.1982 185.483 97.2415 185.6 97.2546C187.482 95.9909 189.976 93.728 193.072 90.4451C196.206 87.1222 199.948 82.7659 204.288 77.3728L204.367 77.2742H204.485C204.49 77.2726 204.501 77.269 204.517 77.2615C204.552 77.2445 204.602 77.2143 204.667 77.1677C204.797 77.0743 204.969 76.9283 205.183 76.7244C205.61 76.3167 206.185 75.699 206.911 74.8689C208.363 73.2097 210.404 70.7166 213.046 67.3865L213.06 67.3699L213.076 67.3542C215.229 65.4117 217.387 62.8976 219.474 59.7986L219.511 59.7439L219.569 59.7126C225.097 56.7699 228.336 53.787 229.411 50.7175C229.399 50.6386 229.352 50.516 229.217 50.3455C229.064 50.1521 228.825 49.9249 228.494 49.6648C227.844 49.1544 226.869 48.5438 225.57 47.8376C225.501 47.8475 225.394 47.871 225.25 47.9236C225.067 47.9907 224.844 48.0924 224.601 48.2292L224.528 48.2703L224.446 48.2625C221.761 48.013 219.729 47.6697 218.362 47.2458C217.681 47.0345 217.147 46.7971 216.778 46.53C216.411 46.2641 216.167 45.936 216.167 45.5417V44.6648L216.213 44.5974L216.961 43.5105V43.0417C216.639 42.9961 216.276 42.874 215.879 42.6873C215.364 42.4451 214.769 42.0861 214.097 41.616C212.768 40.6862 211.115 39.3058 209.15 37.4861C208.584 37.4598 208.111 37.2323 207.747 36.7908C207.37 36.3333 207.123 35.6668 206.977 34.8152L206.973 34.7927V34.7703C206.973 34.3194 207.122 32.7189 207.405 29.991L206.975 26.4773L206.966 26.4021L206.998 26.3328C207.494 25.2681 207.768 24.2257 207.768 23.1824V23.1082C207.277 23.1799 206.819 23.4551 206.397 23.9753C205.896 24.5953 205.455 25.5513 205.1 26.8738L205.07 26.9832L204.971 27.0369L204.177 27.4714L204.117 27.5037H203.689C203.387 27.5037 203.112 27.4174 202.914 27.2195C202.716 27.0215 202.63 26.7477 202.63 26.4451V25.1062L202.708 25.0291C206.961 20.7869 210.437 18.0205 213.07 16.615L217.453 10.2898C218.794 8.24402 221.124 6.46291 224.403 4.92456C227.688 3.38366 231.947 2.07595 237.169 0.988037L237.195 0.982178H238.16L238.238 1.10132C238.515 1.52187 238.672 1.9935 238.708 2.57104H238.745C240.167 1.78616 241.35 1.1935 242.29 0.795654C243.231 0.397159 243.964 0.17749 244.457 0.17749H244.477L244.495 0.18042ZM148.774 166.934C148.408 167.002 148.113 167.054 147.892 167.09C147.679 167.123 147.513 167.145 147.416 167.145H147.151V166.922C146.076 167.348 144.711 167.58 143.073 167.58H141.381L141.353 167.573L139.679 167.201C139.637 167.374 139.556 167.53 139.432 167.655C139.304 167.782 139.145 167.863 138.967 167.905C139.081 168.194 139.424 168.493 140.147 168.76C141.042 169.089 142.404 169.323 144.243 169.433L144.354 169.439C146.93 169.408 149.174 168.419 151.082 166.497C150.124 166.679 149.355 166.827 148.774 166.934ZM125.056 143.97C125.048 143.974 125.019 143.99 124.969 144.051C124.895 144.14 124.807 144.291 124.713 144.515C124.526 144.958 124.333 145.637 124.156 146.558C124.164 150.372 125.852 155.628 129.192 162.273H129.209V161.51C129.023 161.421 128.866 161.252 128.736 161.063C128.537 160.773 128.338 160.353 128.136 159.815C127.73 158.737 127.293 157.127 126.821 154.99L126.804 154.912L126.833 154.837C127.228 153.826 127.513 152.984 127.699 152.317C127.86 151.74 127.94 151.307 127.96 151.011C126.168 149.776 125.264 147.398 125.22 143.97H125.056ZM281.56 98.0769C293.22 98.077 302.158 103.267 306.955 111.64L307.025 111.762L306.962 111.889L303.181 119.526L302.861 120.173L302.687 119.472C300.158 109.315 291.511 103.828 281.56 103.828C268.282 103.828 258.744 113.596 258.744 127.289C258.744 140.983 268.283 150.824 281.56 150.824C291.751 150.824 300.555 145.023 302.854 134.551L303.378 132.167V134.555L307.206 142.297L307.267 142.42L307.201 142.54C302.489 151.235 293.38 156.586 281.56 156.586C272.653 156.586 265.305 153.506 260.185 148.294C255.065 143.082 252.189 135.754 252.188 127.289C252.188 118.823 255.065 111.517 260.185 106.326C265.305 101.134 272.653 98.0769 281.56 98.0769ZM83.5361 99.1257C89.3669 99.1257 94.0964 100.625 97.373 103.37C100.655 106.12 102.453 110.098 102.453 114.992C102.453 119.886 100.656 123.903 97.375 126.692C94.0988 129.477 89.3687 131.017 83.5361 131.017H65.1484V155.95H58.5928V99.1365H82.9082L82.8975 99.1257H83.5361ZM115.1 155.939H108.543V99.1257H115.1V155.939ZM244.414 155.939H237.858V99.1257H244.414V155.939ZM155.691 148.239H156.281C156.394 148.239 156.563 148.173 156.805 147.931C157.034 147.702 157.296 147.345 157.604 146.839V146.82H157.11L155.691 148.239ZM180.366 126.777C179.246 127.88 178.065 129.047 176.812 130.263C175.35 132.517 172.831 135.182 169.262 138.259C169.214 138.906 168.8 139.616 168.11 140.376C167.386 141.173 166.318 142.065 164.918 143.052C164.896 143.494 164.775 143.979 164.561 144.426L165.785 145.372C167.335 143.721 168.569 142.471 169.476 141.627C169.944 141.19 170.33 140.857 170.629 140.632C170.778 140.519 170.912 140.43 171.027 140.367C171.066 140.346 171.109 140.325 171.152 140.306C171.183 140.194 171.232 140.076 171.293 139.96C171.397 139.761 171.549 139.531 171.744 139.271C172.134 138.751 172.715 138.088 173.482 137.284C175.013 135.681 177.305 133.495 180.366 130.723V126.777ZM180.016 133.612C179.979 133.793 179.912 133.996 179.822 134.214C179.722 134.455 179.587 134.731 179.426 135.042H179.998L180.261 133.612H180.016ZM126.01 133.712C125.954 133.74 125.909 133.773 125.874 133.807C125.794 133.887 125.745 133.997 125.745 134.152V134.247H126.01V133.712ZM65.1387 125.256H83.5254C87.3801 125.256 90.4704 124.26 92.5918 122.49C94.7076 120.725 95.8857 118.167 95.8857 114.981C95.8857 111.796 94.7077 109.282 92.5938 107.559C90.4729 105.831 87.3824 104.877 83.5254 104.877H65.1387V125.256ZM186.912 116.597C188.463 114.83 189.753 113.452 190.802 112.438L186.912 106.037V116.597ZM180.032 108.116C180.085 108.147 180.136 108.184 180.18 108.233C180.201 108.258 180.217 108.285 180.234 108.312C180.276 108.285 180.316 108.258 180.355 108.231V106.973H180.292L180.032 108.116ZM136.324 106.938C136.15 107.06 135.959 107.306 135.745 107.76C135.779 107.732 135.817 107.7 135.854 107.661C136.008 107.5 136.169 107.258 136.324 106.938ZM207.68 87.4617C207.305 87.5408 206.831 87.7392 206.252 88.0789C205.481 88.5311 204.551 89.2155 203.462 90.1384C201.283 91.9841 198.485 94.7638 195.051 98.489L195.033 98.5076L195.013 98.5232L192.259 100.546L192.188 100.597H191.403V99.4031L191.512 99.324C193.243 98.0628 194.53 96.9705 195.382 96.0476C195.807 95.5864 196.119 95.1731 196.322 94.8083C196.458 94.5643 196.542 94.3477 196.583 94.158H196.184C193.746 96.2599 191.817 97.995 190.403 99.363L193.28 104.168C197.217 100.392 201.118 95.7865 205.021 90.2478C205.047 90.0875 205.132 89.9259 205.234 89.7751C205.364 89.5845 205.551 89.3676 205.787 89.1267C206.227 88.6778 206.863 88.1223 207.68 87.4617ZM146.708 94.4539C145.518 95.2986 144.576 96.0695 143.879 96.7664C143.185 97.4599 142.749 98.066 142.544 98.5828V98.7009C144.099 97.4279 145.261 96.4058 146.035 95.6316C146.429 95.238 146.717 94.9147 146.904 94.6589C146.96 94.5831 147.004 94.5141 147.04 94.4539H146.708ZM193.417 94.6277C192.546 94.7432 191.899 94.9536 191.464 95.2322C191.086 95.4742 190.877 95.7624 190.807 96.0916C191.077 96.1049 191.301 96.1388 191.472 96.1951C191.583 96.2319 191.703 96.2922 191.793 96.3816C192.328 96.1468 192.855 95.5979 193.417 94.6277ZM166.873 94.5496C166.873 94.6622 166.938 94.8308 167.181 95.073C167.41 95.3021 167.766 95.5655 168.272 95.8738H168.366V93.5984L166.873 93.2771V94.5496ZM198.457 92.198C198.344 92.1981 198.175 92.2639 197.934 92.5056C197.76 92.6795 197.566 92.9273 197.348 93.2576H198.997V92.198H198.457ZM199.696 88.2156C199.197 88.2156 198.62 88.4509 197.967 88.9666C197.315 89.4808 196.608 90.257 195.854 91.2947L195.774 91.4041H195.545V91.9089C195.577 92.1161 195.647 92.2517 195.729 92.3337C195.786 92.3903 195.858 92.4299 195.95 92.449C196.893 91.1666 197.689 90.1989 198.343 89.5447C198.68 89.2076 198.987 88.9463 199.263 88.7683C199.441 88.6531 199.619 88.565 199.792 88.5183V88.2156H199.696ZM161.291 89.8679H161.943C161.921 89.8129 161.892 89.7699 161.858 89.738C161.78 89.6648 161.637 89.6033 161.386 89.6033H161.291V89.8679ZM202.475 89.3699C202.268 89.4022 202.132 89.4726 202.05 89.5544C202.026 89.5779 202.007 89.6056 201.989 89.6345H202.09C202.295 89.6344 202.419 89.5776 202.491 89.5056C202.524 89.4724 202.553 89.4276 202.575 89.3699H202.475ZM86.9248 11.8074H88.4697L88.4893 11.8103C88.7822 11.8531 89.0395 11.9614 89.2256 12.1472C89.4155 12.3372 89.5096 12.587 89.5098 12.866V13.5076L89.3096 13.5574C83.5901 14.9899 79.3974 17.6215 76.7607 21.3601C76.7309 21.5668 76.6036 21.725 76.4219 21.823C76.2949 21.8913 76.1417 21.9289 75.9736 21.948V22.2292H77.0645C77.1626 21.8105 77.4876 21.4312 77.9473 21.0886C78.4993 20.6774 79.3007 20.2754 80.3271 19.8777C80.8747 19.2042 81.7813 18.5328 83.0234 17.8669C84.3075 17.1786 85.9694 16.484 88.0059 15.7927L88.3555 15.6746V16.1599C89.2369 15.9908 89.9019 15.7826 90.3516 15.5544C90.8139 15.3198 90.976 15.1037 91.0068 14.946L90.6123 14.2214L90.4805 13.9812L90.7256 13.8582L91.5947 13.4236L91.666 13.3884L91.7451 13.3982C92.6554 13.51 93.3613 13.6391 93.8438 13.78C94.0823 13.8498 94.2823 13.9267 94.4277 14.0144C94.4709 14.0405 94.5186 14.0772 94.5645 14.1189L95.1514 13.8533L95.2227 13.822L95.2998 13.8328C95.5927 13.8755 95.8501 13.9839 96.0361 14.1697C96.2262 14.3597 96.3202 14.6102 96.3203 14.8894V14.946L96.2969 14.9988L96.1064 15.4187H96.6094C96.6657 15.0768 96.8247 14.7321 97.0537 14.325L97.1797 14.1003L97.4072 14.2205C101.368 16.3062 103.461 19.2768 103.55 23.0369C104.024 23.0799 104.454 23.241 104.832 23.5251C105.274 23.8582 105.632 24.3483 105.912 24.9744C106.47 26.221 106.742 28.0585 106.742 30.4587V30.4949L106.733 30.5291L106.326 32.0154C106.508 32.3462 106.64 32.6364 106.702 32.9216C106.738 32.8929 106.777 32.8577 106.816 32.8103C106.95 32.648 107.084 32.3847 107.211 32.0007C107.45 31.274 107.639 30.1837 107.779 28.7166C107.698 28.6868 107.62 28.6424 107.555 28.5769C107.416 28.4382 107.367 28.2512 107.367 28.0652V27.9216L107.488 27.8425L108.717 27.0486L108.973 26.8835L109.101 27.1589C109.62 28.2727 109.92 29.3181 109.92 30.4587V32.0476C109.92 32.7468 109.849 33.2943 109.694 33.6755C109.616 33.8681 109.511 34.0337 109.369 34.1521C109.325 34.1886 109.278 34.2173 109.229 34.2429L109.462 34.7556L109.502 34.8435L109.476 34.9363C109.364 35.3366 109.246 35.66 109.096 35.8865C109.016 36.0059 108.923 36.1042 108.812 36.1736L109.093 36.6873L109.155 36.8015L109.104 36.9207C107.523 40.5242 105.419 47.0216 102.739 56.5125L102.733 56.5349L102.724 56.5554C100.222 61.7394 98.0235 65.6481 96.1367 68.2644C95.1937 69.572 94.3209 70.5668 93.5195 71.2371C92.7914 71.846 92.0962 72.2074 91.4414 72.2654C90.9982 73.4166 90.381 74.3139 89.5732 74.9294C88.7503 75.5565 87.7514 75.8766 86.5889 75.8953L77.8291 84.2244L77.7617 84.2888L77.668 84.2957C76.8661 84.3589 76.0585 85.0438 75.1182 86.5652L75.0879 86.615L75.0381 86.6472C73.3216 87.7732 71.2339 88.2791 68.8877 88.2791C67.2029 88.2789 65.2269 87.7384 62.9473 86.6707C60.6655 85.6018 58.0628 83.9975 55.1211 81.8523L55.084 81.825L55.0576 81.7859C53.7142 79.7894 52.7105 78.093 52.042 76.6824C51.3765 75.2779 51.0303 74.1301 51.0303 73.239V69.2566C51.0303 66.5281 51.9126 62.8902 53.6533 58.3474C55.396 53.7995 58.0074 48.3232 61.4844 41.9099L61.5596 41.7712H61.7168C61.7233 41.7693 61.742 41.7615 61.7754 41.738C61.8264 41.702 61.8928 41.6393 61.9746 41.5408C62.138 41.344 62.3349 41.0369 62.5625 40.6091C63.0165 39.7558 63.5728 38.4651 64.2227 36.7322L64.2871 36.5603H64.4326C64.4363 36.5573 64.441 36.5535 64.4463 36.5486C64.483 36.5146 64.5356 36.4533 64.6025 36.3533C64.7355 36.1545 64.9002 35.8453 65.0977 35.4197C65.4912 34.571 65.9972 33.2956 66.6162 31.5974L66.6299 31.5583L66.6553 31.5251L76.2832 19.1433L76.3008 19.1238C78.4421 16.8709 80.358 15.1717 82.0449 14.0251C83.6297 12.9481 85.0356 12.3423 86.251 12.2429C86.2775 12.1524 86.3195 12.0682 86.3818 11.9968C86.5026 11.8585 86.6701 11.7967 86.8408 11.7966H86.9033L86.9248 11.8074ZM201.217 86.0339C201.348 86.2847 201.447 86.5128 201.504 86.7371C201.834 86.5826 202.199 86.4908 202.62 86.4646V86.3621C202.62 86.1108 202.558 85.9687 202.484 85.8904C202.414 85.8151 202.295 85.7586 202.09 85.7585H201.725L201.217 86.0339ZM28.4072 29.0505C33.4751 29.0506 37.6038 30.3485 40.4697 32.7302C43.3412 35.1168 44.9188 38.5712 44.9189 42.8201C44.9189 46.1657 44.0429 49.0796 42.2832 51.3845C40.6576 53.5135 38.2907 55.1035 35.207 56.0408C37.4729 56.9602 39.1169 58.3694 40.2109 60.4158C41.4178 62.6733 41.9433 65.6798 41.9434 69.5955V71.6082C41.9434 77.2235 42.9111 82.4834 47.29 85.3787L48.0244 85.864H39.3242L39.249 85.8005C37.4672 84.2646 36.4006 82.0965 35.8086 79.6306C35.2168 77.1653 35.0954 74.3841 35.2178 71.5964L35.3027 69.5847L35.3164 69.1169C35.417 64.348 34.0979 61.5424 31.9678 59.908C29.7495 58.2062 26.5902 57.7224 23.0264 57.7224H6.56641V85.864H0V29.0505H28.4072ZM133.063 29.3064L133.284 29.2078L158.217 85.4919L158.382 85.864H151.203L151.134 85.7068L140.432 61.4187H117.137L106.435 85.7068L106.364 85.864H99.3555L99.5205 85.4919L124.453 29.2078L124.523 29.0505H133.063V29.3064ZM178.809 29.0505C187.712 29.0505 195.058 32.0058 200.18 37.0144C205.301 42.0232 208.18 49.0683 208.18 57.2136C208.18 65.3586 205.302 72.5248 200.183 77.655C195.063 82.7858 187.716 85.864 178.809 85.864H161.1V29.0505H178.809ZM255.037 85.864H248.481V29.0505H255.037V85.864ZM283.497 29.0505C292.401 29.0505 299.748 32.0057 304.869 37.0144C309.99 42.0232 312.868 49.0685 312.868 57.2136C312.868 65.3586 309.99 72.5248 304.871 77.655C299.751 82.7858 292.404 85.864 283.497 85.864H265.788V29.0505H283.497ZM357.862 34.8015H325.06V52.447H357.058V58.2097H325.06V80.113H357.862V85.864H318.493V29.0505H357.862V34.8015ZM61.5693 80.3474C63.1921 83.0981 64.7588 84.4184 66.25 84.5583V83.7869C66.2451 83.7844 66.2392 83.7827 66.2344 83.78C66.149 83.7336 66.042 83.6665 65.917 83.5828C65.6656 83.4144 65.321 83.1639 64.8857 82.8328C64.0922 82.2292 62.9867 81.3472 61.5693 80.1843V80.3474ZM205.663 81.4158C205.456 81.4481 205.319 81.5184 205.237 81.6003C205.158 81.6802 205.109 81.7905 205.108 81.9451V82.4753H205.278C205.391 82.4751 205.56 82.4092 205.802 82.1677C205.976 81.9938 206.17 81.7459 206.388 81.4158H205.663ZM56.2588 57.4109C56.1217 57.572 55.9794 57.7732 55.834 58.0183C55.5392 58.5151 55.2412 59.1734 54.9414 59.9968C54.3433 61.6396 53.7497 63.9159 53.1699 66.8269V72.0212C53.17 75.5838 55.1772 78.9703 59.3721 82.1785H59.4502V82.0085C59.45 81.3716 59.1937 80.3437 58.6592 78.8884C58.1281 77.4425 57.3343 75.6045 56.2871 73.3621L56.2676 73.3201L56.2637 73.2742L55.4688 64.8757L55.4658 64.8425L55.4707 64.8103C55.9629 61.5905 56.2415 59.1212 56.2588 57.4109ZM71.8535 80.2927L71.7939 80.325H68.7285V80.4207C68.7287 80.6915 68.8837 80.9618 69.3037 81.2039C69.7259 81.4468 70.3839 81.6372 71.2969 81.7419C72.764 81.6312 73.8413 81.4885 74.5469 81.3064C74.9033 81.2144 75.145 81.117 75.292 81.0222C75.4402 80.9266 75.4443 80.8672 75.4443 80.8542V80.325H72.8809C72.7077 80.3249 72.5376 80.2641 72.416 80.1218C72.3894 80.0906 72.367 80.0564 72.3477 80.0212L71.8535 80.2927ZM207.199 79.6511C207.347 80.0338 207.46 80.4336 207.492 80.8757H208.076C208.113 80.8645 208.168 80.8413 208.242 80.7869C208.354 80.7043 208.49 80.5718 208.649 80.3806C208.912 80.0654 209.221 79.6129 209.584 79.0222H208.114L207.199 79.6511ZM167.655 80.1873H178.809C192.091 80.1873 201.623 70.5737 201.623 57.2136C201.623 50.527 199.236 44.9278 195.2 41.0007C191.164 37.0731 185.462 34.8015 178.809 34.8015H167.655V80.1873ZM272.345 80.1873H283.497C296.779 80.1873 306.312 70.5737 306.312 57.2136C306.312 50.527 303.924 44.9278 299.889 41.0007C295.852 37.0731 290.151 34.8015 283.497 34.8015H272.345V80.1873ZM211.813 76.282C211.754 76.3187 211.689 76.3671 211.623 76.4333C211.47 76.5865 211.315 76.814 211.164 77.1169C211.193 77.095 211.226 77.0717 211.258 77.0427C211.428 76.8877 211.616 76.6424 211.813 76.2908V76.282ZM65.1514 63.0925C64.9149 64.5104 64.7286 65.6653 64.6006 66.5574C64.4652 67.5009 64.3966 68.1341 64.3965 68.4724C64.3965 68.9312 64.5306 69.4035 64.7402 69.9695L64.7754 70.0632L64.7393 70.156C64.6273 70.4492 64.5403 70.6782 64.4805 70.8601C64.4318 71.0083 64.4102 71.1074 64.4023 71.1716C65.1695 72.952 66.3098 73.7789 67.6807 73.7791H68.1143C68.3197 73.7791 68.4436 73.7221 68.5156 73.6501C68.5656 73.6001 68.6056 73.5246 68.627 73.4148C68.4209 73.296 68.2283 73.0949 68.0469 72.8513C67.7976 72.5166 67.5366 72.0557 67.2656 71.4783C66.7229 70.3216 66.1205 68.6602 65.4678 66.5164L65.4561 66.4783V63.0925H65.1514ZM85.7363 26.7312C85.7021 26.7426 85.6367 26.7739 85.5381 26.8533C85.4279 26.9421 85.2939 27.0731 85.1367 27.2517C84.8224 27.6089 84.4318 28.1339 83.9639 28.8308C83.0286 30.2239 81.8011 32.28 80.2822 34.9949L80.2773 35.0027C72.8486 47.1904 69.1813 57.3311 69.1631 65.573L69.1738 65.5925V66.45C69.1738 66.6232 69.1131 66.7931 68.9707 66.9148C68.9205 66.9576 68.8632 66.9869 68.8037 67.0115C69.3307 68.9975 69.9456 70.4852 70.6309 71.4802C71.3461 72.5186 72.1076 72.9849 72.8916 72.9851H73.1201L73.1533 73.2117C73.1846 73.4262 73.2571 73.5662 73.3408 73.6501C73.4173 73.7266 73.5217 73.773 73.666 73.7771C73.6759 73.7736 73.6952 73.7664 73.7236 73.7507C73.7721 73.7239 73.8352 73.6812 73.9141 73.6189C74.0724 73.4937 74.2757 73.3041 74.5254 73.0457C75.024 72.5295 75.6885 71.7585 76.5195 70.7292C78.1807 68.672 80.4941 65.5992 83.459 61.5066C87.7143 55.445 90.0798 50.1297 90.5811 45.6287L90.585 45.6052L93.0303 33.6365C92.5628 31.2879 91.9432 29.5521 91.1729 28.408C90.4033 27.2652 89.4995 26.7312 88.4502 26.7312H85.7363ZM82.5664 66.7146C81.1709 67.1949 80.1473 68.4043 79.5107 70.5085L79.4883 70.5837L79.4277 70.6345L77.1797 72.5339C78.0423 72.4519 78.9114 72.0234 79.7803 71.2175C80.744 70.3235 81.6935 68.9783 82.6143 67.1785V66.7146H82.5664ZM230.223 57.5388C229.95 58.3638 229.31 59.2807 228.354 60.2849C227.277 61.4167 225.773 62.687 223.866 64.0955L221.547 67.2576V67.2654H221.606C221.621 67.2577 221.644 67.2446 221.675 67.2234C221.748 67.1731 221.851 67.0932 221.982 66.9792C222.245 66.7519 222.609 66.4068 223.073 65.9431C224.001 65.0164 225.32 63.6269 227.019 61.78L227.026 61.7712L227.114 61.6833H227.225C227.647 61.683 228.14 61.4003 228.723 60.6853C229.267 60.0166 229.851 59.0137 230.491 57.6609L230.223 57.5388ZM63.6133 61.8875L63.9971 62.0974L64.2168 61.614V60.0837C64.2167 59.8787 64.1598 59.7553 64.0879 59.6833C64.0478 59.6434 63.991 59.6091 63.9141 59.5857L63.6133 61.8875ZM67.1396 59.8083H67.8389V59.1101H67.1396V59.8083ZM240.56 51.866C239.541 53.444 238.775 54.7967 238.26 55.9363C237.721 57.1271 237.467 58.0637 237.467 58.7703V58.866H237.957C238.293 58.7688 238.691 58.452 239.139 57.824C239.588 57.1945 240.062 56.2894 240.56 55.0925V51.866ZM119.636 55.6677H137.953L128.794 34.8757L119.636 55.6677ZM69.9053 51.5046C69.6775 52.3231 69.4979 53.0129 69.374 53.5691C69.2779 54.0007 69.2184 54.3429 69.1914 54.5974H69.2695C69.2799 54.5973 69.3333 54.592 69.4248 54.4724C69.5165 54.3525 69.6159 54.1544 69.7158 53.863C69.8977 53.3323 70.0588 52.5464 70.1943 51.5046H69.9053ZM232.329 54.449H232.595V53.824H232.329V54.449ZM6.55566 51.9705H28.4072C31.5397 51.9704 34.0242 51.1377 35.7217 49.6716C37.4145 48.2093 38.3525 46.0937 38.3525 43.4656C38.3524 40.8369 37.4147 38.6797 35.7197 37.1775C34.0214 35.6724 31.5367 34.8016 28.4072 34.8015H6.55566V51.9705ZM82.1494 27.8962C81.8556 28.0476 81.503 28.3231 81.0947 28.741C80.6655 29.1804 80.1846 29.7641 79.6553 30.4949C78.5963 31.9568 77.3526 33.9902 75.9414 36.5906L75.9346 36.6033L75.9268 36.615C73.8902 39.5669 72.0435 44.2031 70.4033 50.615H70.4053C70.4083 50.611 70.4125 50.607 70.416 50.6023C70.4653 50.5363 70.5338 50.4291 70.6221 50.2742C70.7977 49.966 71.0366 49.4976 71.3389 48.866C71.9429 47.6039 72.7919 45.7061 73.877 43.1707L73.8828 43.157L73.8896 43.1443L78.498 35.0408C78.4583 35.0167 78.4203 34.9875 78.3857 34.9529C78.2473 34.8142 78.1982 34.6272 78.1982 34.4412V34.3093L78.3037 34.2302C78.8472 33.8214 79.4793 33.1072 80.207 32.0564C80.9243 31.0206 81.7235 29.6715 82.6143 27.9978V27.8962H82.1494ZM234.724 46.9714L235.782 47.2117V46.6541H234.724V46.9714ZM228.804 46.6541C228.86 46.7245 228.944 46.7962 229.068 46.8669C229.279 46.9862 229.581 47.0905 229.987 47.1814C229.98 47.1741 229.974 47.1654 229.966 47.158C229.794 46.9936 229.53 46.8197 229.175 46.6541H228.804ZM60.3398 46.5583H60.6055V46.2937H60.3398V46.5583ZM234.812 42.2371C234.841 42.2927 234.873 42.3379 234.908 42.3728C234.988 42.4526 235.098 42.5017 235.253 42.5017H235.738C235.716 42.4438 235.686 42.3992 235.653 42.366C235.581 42.2941 235.458 42.2372 235.253 42.2371H234.812ZM216.961 39.4285V39.3835C216.93 39.3766 216.899 39.3701 216.867 39.3611L216.961 39.4285ZM94.4434 22.0691C94.9429 24.3703 95.3127 26.1718 95.5596 27.49C95.767 28.5977 95.891 29.3814 95.9326 29.8337H95.9893L96.5068 29.5496L96.249 28.9792L96.2246 28.9275V28.491L96.2275 28.4714L96.5791 26.073C96.153 24.6655 95.7143 23.6252 95.2773 22.9402C94.9751 22.4665 94.6936 22.1969 94.4434 22.0691ZM98.3535 29.4001H98.6191V29.1355H98.3535V29.4001ZM75.0098 27.6365C74.9543 27.6651 74.9088 27.6964 74.874 27.7312C74.8503 27.7549 74.8303 27.7819 74.8125 27.8113H75.0098V27.6365ZM89.2686 23.5642C89.0621 23.5967 88.9266 23.6669 88.8447 23.7488C88.7648 23.8287 88.7159 23.9388 88.7158 24.0935V24.1892H89.8047C89.8445 23.997 89.9229 23.7889 90.0322 23.5642H89.2686ZM75.6191 23.1531C75.4751 23.1904 75.3745 23.2484 75.3086 23.3142C75.2288 23.3941 75.1798 23.5043 75.1797 23.6589V23.7048C75.2169 23.6749 75.2574 23.6389 75.2998 23.5945C75.4044 23.485 75.511 23.3366 75.6191 23.1531ZM86.332 21.1208V21.7898C86.9407 21.7634 87.4198 21.6429 87.7852 21.4392C88.0874 21.2706 88.3218 21.0395 88.4902 20.7361H88.1289L86.332 21.1208ZM85.7207 17.908C85.5144 17.9404 85.3828 18.01 85.3027 18.0955C85.2657 18.1351 85.2344 18.1849 85.2109 18.2468H85.6299C85.871 18.1148 86.097 18.0105 86.2939 17.9382C86.3245 17.927 86.3557 17.918 86.3857 17.908H85.7207ZM98.7822 17.114C98.8312 17.2123 98.9108 17.3223 99.0293 17.4451C99.2581 17.6818 99.6135 17.9436 100.114 18.2468H100.207V18.0769C100.207 18.0015 100.157 17.8672 99.9688 17.6785C99.7946 17.5044 99.5293 17.3129 99.1738 17.114H98.7822ZM92.3379 17.8123H92.5068C92.7123 17.8123 92.8362 17.7553 92.9082 17.6833C92.9413 17.6502 92.9696 17.6055 92.9922 17.5476H92.3379V17.8123ZM233.675 4.27319C227.741 5.41773 223.538 7.28788 221.035 9.79077L220.958 9.8689H220.848C220.845 9.86908 220.827 9.87069 220.792 9.8855C220.754 9.90153 220.703 9.92925 220.641 9.97241C220.514 10.0596 220.354 10.1981 220.16 10.3923C219.785 10.7687 219.306 11.3339 218.719 12.0896V12.5271H218.733C222.8 9.76216 226.174 7.67155 228.842 6.26929C230.183 5.56437 231.352 5.03027 232.343 4.67261C232.825 4.49868 233.27 4.36466 233.675 4.27319ZM236.028 3.87085C235.369 3.96991 234.728 4.07643 234.105 4.19116C234.361 4.15035 234.599 4.1277 234.818 4.12769H234.829C235.354 4.12764 235.701 4.05718 235.907 3.95093C235.957 3.9252 235.997 3.89773 236.028 3.87085Z" fill="#CDCDCD"/>
</svg>
